<?xml version="1.0" encoding="utf-8"?>
<!-- Generator: Adobe Illustrator 19.0.0, SVG Export Plug-In . SVG Version: 6.00 Build 0)  -->
<svg version="1.1" id="Layer_1" xmlns="http://www.w3.org/2000/svg" xmlns:xlink="http://www.w3.org/1999/xlink" x="0px" y="0px"
	 viewBox="0 0 1400 980" style="enable-background:new 0 0 1400 980;" xml:space="preserve">
<style type="text/css">
	.st0{clip-path:url(#SVGID_2_);}
	.st1{fill:#60E6EA;}
	.st2{filter:url(#Adobe_OpacityMaskFilter);}
	.st3{filter:url(#Adobe_OpacityMaskFilter_1_);}
	.st4{mask:url(#SVGID_3_);fill:url(#SVGID_4_);}
	.st5{fill:url(#SVGID_5_);}
	.st6{filter:url(#Adobe_OpacityMaskFilter_2_);}
	.st7{filter:url(#Adobe_OpacityMaskFilter_3_);}
	.st8{mask:url(#SVGID_6_);fill:url(#SVGID_7_);}
	.st9{fill:url(#SVGID_8_);}
	.st10{filter:url(#Adobe_OpacityMaskFilter_4_);}
	.st11{filter:url(#Adobe_OpacityMaskFilter_5_);}
	.st12{mask:url(#SVGID_9_);fill:url(#SVGID_10_);}
	.st13{fill:url(#SVGID_11_);}
	.st14{filter:url(#Adobe_OpacityMaskFilter_6_);}
	.st15{filter:url(#Adobe_OpacityMaskFilter_7_);}
	.st16{mask:url(#SVGID_12_);fill:url(#SVGID_13_);}
	.st17{fill:url(#SVGID_14_);}
	.st18{filter:url(#Adobe_OpacityMaskFilter_8_);}
	.st19{filter:url(#Adobe_OpacityMaskFilter_9_);}
	.st20{mask:url(#SVGID_15_);fill:url(#SVGID_16_);}
	.st21{fill:url(#SVGID_17_);}
	.st22{filter:url(#Adobe_OpacityMaskFilter_10_);}
	.st23{filter:url(#Adobe_OpacityMaskFilter_11_);}
	.st24{mask:url(#SVGID_18_);fill:url(#SVGID_19_);}
	.st25{fill:url(#SVGID_20_);}
	.st26{fill:#99C455;}
	.st27{fill:#FCE11D;}
	.st28{fill:#FFFFFF;}
	.st29{fill:#61969D;}
	.st30{fill:#7BA5A8;}
	.st31{fill:#456D6F;}
	.st32{fill:none;stroke:#231F20;stroke-miterlimit:10;}
	.st33{fill:none;}
	.st34{fill:#83AD1C;}
	.st35{fill:#729332;}
	.st36{fill:#B2D372;}
	.st37{fill:#F7D9A4;}
	.st38{fill:#A5AAAA;}
	.st39{fill:#7EB734;}
	.st40{fill:#8C5226;}
	.st41{fill:#A3622C;}
	.st42{fill:#6B842C;}
	.st43{fill:#5F7225;}
	.st44{fill:#58661D;}
	.st45{fill:url(#SVGID_21_);}
	.st46{fill:#AAAAAA;}
	.st47{fill:#919191;}
	.st48{fill:#6F7172;}
	.st49{font-family:'RobotoSlab-Bold';}
	.st50{font-size:99.7952px;}
	.st51{font-family:'RobotoSlab-Regular';}
	.st52{font-size:78.0941px;}
</style>
<g>
	<defs>
		<rect id="SVGID_1_" width="1400" height="980"/>
	</defs>
	<clipPath id="SVGID_2_">
		<use xlink:href="#SVGID_1_"  style="overflow:visible;"/>
	</clipPath>
	<g class="st0">
		<rect class="st1" width="1400" height="651"/>
		<g>
			<defs>
				<filter id="Adobe_OpacityMaskFilter" filterUnits="userSpaceOnUse" x="763.9" y="366.9" width="550.9" height="216.1">
					<feFlood  style="flood-color:white;flood-opacity:1" result="back"/>
					<feBlend  in="SourceGraphic" in2="back" mode="normal"/>
				</filter>
			</defs>
			<mask maskUnits="userSpaceOnUse" x="763.9" y="366.9" width="550.9" height="216.1" id="SVGID_3_">
				<g class="st2">
					<defs>
						<filter id="Adobe_OpacityMaskFilter_1_" filterUnits="userSpaceOnUse" x="763.9" y="366.9" width="550.9" height="216.1">
							<feFlood  style="flood-color:white;flood-opacity:1" result="back"/>
							<feBlend  in="SourceGraphic" in2="back" mode="normal"/>
						</filter>
					</defs>
					<mask maskUnits="userSpaceOnUse" x="763.9" y="366.9" width="550.9" height="216.1" id="SVGID_3_">
						<g class="st3">
						</g>
					</mask>
					
						<linearGradient id="SVGID_4_" gradientUnits="userSpaceOnUse" x1="210.1049" y1="346.9263" x2="223.7482" y2="466.3053" gradientTransform="matrix(-1 0 0 1 1268.822 0)">
						<stop  offset="0" style="stop-color:#B3B3B3"/>
						<stop  offset="1" style="stop-color:#000000"/>
					</linearGradient>
					<path class="st4" d="M766.6,437.7c0,0,25.4-35.3,87.6-18.2c0,0,2-14.7,25.4-12.1c0,0,9.3-18.4,45-13.2
						c35.7,5.2,58.2-35.7,88.2-24.6c0,0,41.3-13.1,72.6,18.7c0,0,31.1-9.3,47.5,12.9c0,0,31.5-14,57.8,5.1c0,0,20.6-2.5,29.2,13.8
						c8.7,16.3-16.6,32.6-39.5,23.8c0,0-5.8,13.1-31.9,18.6c0,0-23.4-0.7-30.7,14.9c-7.2,15.6-29,12.3-29,12.3s9.3,18.3,57.9,8.6
						c48.5-9.7,60.5,13.3,60.5,13.3s19-11.3,35.6,0.7c16.5,12,46.8-12.1,72.3,3.6l-1.3,67.2l-549.6-10.7L766.6,437.7z"/>
				</g>
			</mask>
			
				<linearGradient id="SVGID_5_" gradientUnits="userSpaceOnUse" x1="210.1049" y1="346.9263" x2="223.7482" y2="466.3053" gradientTransform="matrix(-1 0 0 1 1268.822 0)">
				<stop  offset="0" style="stop-color:#FFFFFF"/>
				<stop  offset="1" style="stop-color:#60E6EA"/>
			</linearGradient>
			<path class="st5" d="M766.6,437.7c0,0,25.4-35.3,87.6-18.2c0,0,2-14.7,25.4-12.1c0,0,9.3-18.4,45-13.2
				c35.7,5.2,58.2-35.7,88.2-24.6c0,0,41.3-13.1,72.6,18.7c0,0,31.1-9.3,47.5,12.9c0,0,31.5-14,57.8,5.1c0,0,20.6-2.5,29.2,13.8
				c8.7,16.3-16.6,32.6-39.5,23.8c0,0-5.8,13.1-31.9,18.6c0,0-23.4-0.7-30.7,14.9c-7.2,15.6-29,12.3-29,12.3s9.3,18.3,57.9,8.6
				c48.5-9.7,60.5,13.3,60.5,13.3s19-11.3,35.6,0.7c16.5,12,46.8-12.1,72.3,3.6l-1.3,67.2l-549.6-10.7L766.6,437.7z"/>
			<defs>
				<filter id="Adobe_OpacityMaskFilter_2_" filterUnits="userSpaceOnUse" x="101.1" y="409.9" width="657.3" height="257.8">
					<feFlood  style="flood-color:white;flood-opacity:1" result="back"/>
					<feBlend  in="SourceGraphic" in2="back" mode="normal"/>
				</filter>
			</defs>
			<mask maskUnits="userSpaceOnUse" x="101.1" y="409.9" width="657.3" height="257.8" id="SVGID_6_">
				<g class="st6">
					<defs>
						<filter id="Adobe_OpacityMaskFilter_3_" filterUnits="userSpaceOnUse" x="101.1" y="409.9" width="657.3" height="257.8">
							<feFlood  style="flood-color:white;flood-opacity:1" result="back"/>
							<feBlend  in="SourceGraphic" in2="back" mode="normal"/>
						</filter>
					</defs>
					<mask maskUnits="userSpaceOnUse" x="101.1" y="409.9" width="657.3" height="257.8" id="SVGID_6_">
						<g class="st7">
						</g>
					</mask>
					
						<linearGradient id="SVGID_7_" gradientUnits="userSpaceOnUse" x1="2327.9441" y1="386.1232" x2="2344.2227" y2="528.5608" gradientTransform="matrix(1 0 0 1 -1921.2863 0)">
						<stop  offset="0" style="stop-color:#B3B3B3"/>
						<stop  offset="1" style="stop-color:#000000"/>
					</linearGradient>
					<path class="st8" d="M755.2,494.4c0,0-30.3-42.1-104.5-21.7c0,0-2.4-17.6-30.3-14.4c0,0-11-21.9-53.6-15.8
						c-42.6,6.2-69.4-42.6-105.2-29.4c0,0-49.3-15.7-86.6,22.3c0,0-37.2-11.1-56.7,15.3c0,0-37.6-16.7-68.9,6.1
						c0,0-24.6-2.9-34.9,16.5c-10.3,19.5,19.7,38.9,47.2,28.4c0,0,6.9,15.7,38.1,22.2c0,0,27.9-0.8,36.6,17.7
						c8.6,18.6,34.6,14.6,34.6,14.6s-11.1,21.8-69,10.3c-57.9-11.5-72.2,15.9-72.2,15.9s-22.7-13.5-42.4,0.8
						c-19.7,14.4-55.9-14.5-86.2,4.3l1.6,80.1l655.7-12.8L755.2,494.4z"/>
				</g>
			</mask>
			
				<linearGradient id="SVGID_8_" gradientUnits="userSpaceOnUse" x1="2327.9441" y1="386.1232" x2="2344.2227" y2="528.5608" gradientTransform="matrix(1 0 0 1 -1921.2863 0)">
				<stop  offset="0" style="stop-color:#FFFFFF"/>
				<stop  offset="1" style="stop-color:#60E6EA"/>
			</linearGradient>
			<path class="st9" d="M755.2,494.4c0,0-30.3-42.1-104.5-21.7c0,0-2.4-17.6-30.3-14.4c0,0-11-21.9-53.6-15.8
				c-42.6,6.2-69.4-42.6-105.2-29.4c0,0-49.3-15.7-86.6,22.3c0,0-37.2-11.1-56.7,15.3c0,0-37.6-16.7-68.9,6.1
				c0,0-24.6-2.9-34.9,16.5c-10.3,19.5,19.7,38.9,47.2,28.4c0,0,6.9,15.7,38.1,22.2c0,0,27.9-0.8,36.6,17.7
				c8.6,18.6,34.6,14.6,34.6,14.6s-11.1,21.8-69,10.3c-57.9-11.5-72.2,15.9-72.2,15.9s-22.7-13.5-42.4,0.8
				c-19.7,14.4-55.9-14.5-86.2,4.3l1.6,80.1l655.7-12.8L755.2,494.4z"/>
			<defs>
				<filter id="Adobe_OpacityMaskFilter_4_" filterUnits="userSpaceOnUse" x="146.8" y="359.8" width="439.8" height="172.5">
					<feFlood  style="flood-color:white;flood-opacity:1" result="back"/>
					<feBlend  in="SourceGraphic" in2="back" mode="normal"/>
				</filter>
			</defs>
			<mask maskUnits="userSpaceOnUse" x="146.8" y="359.8" width="439.8" height="172.5" id="SVGID_9_">
				<g class="st10">
					<defs>
						<filter id="Adobe_OpacityMaskFilter_5_" filterUnits="userSpaceOnUse" x="146.8" y="359.8" width="439.8" height="172.5">
							<feFlood  style="flood-color:white;flood-opacity:1" result="back"/>
							<feBlend  in="SourceGraphic" in2="back" mode="normal"/>
						</filter>
					</defs>
					<mask maskUnits="userSpaceOnUse" x="146.8" y="359.8" width="439.8" height="172.5" id="SVGID_9_">
						<g class="st11">
						</g>
					</mask>
					
						<linearGradient id="SVGID_10_" gradientUnits="userSpaceOnUse" x1="2272.573" y1="343.9094" x2="2283.4661" y2="439.2248" gradientTransform="matrix(1 0 0 1 -1921.2863 0)">
						<stop  offset="0" style="stop-color:#B3B3B3"/>
						<stop  offset="1" style="stop-color:#000000"/>
					</linearGradient>
					<path class="st12" d="M584.5,416.4c0,0-20.3-28.2-69.9-14.5c0,0-1.6-11.7-20.3-9.7c0,0-7.4-14.7-35.9-10.5
						c-28.5,4.1-46.5-28.5-70.4-19.7c0,0-33-10.5-57.9,14.9c0,0-24.9-7.5-37.9,10.3c0,0-25.2-11.2-46.1,4.1c0,0-16.4-2-23.3,11
						c-6.9,13,13.2,26,31.6,19c0,0,4.6,10.5,25.5,14.9c0,0,18.7-0.5,24.5,11.9c5.8,12.4,23.2,9.8,23.2,9.8s-7.5,14.6-46.2,6.9
						c-38.7-7.7-48.3,10.6-48.3,10.6s-15.2-9.1-28.4,0.6c-13.2,9.6-37.4-9.7-57.7,2.9l1,53.6l438.8-8.6L584.5,416.4z"/>
				</g>
			</mask>
			
				<linearGradient id="SVGID_11_" gradientUnits="userSpaceOnUse" x1="2272.573" y1="343.9094" x2="2283.4661" y2="439.2248" gradientTransform="matrix(1 0 0 1 -1921.2863 0)">
				<stop  offset="0" style="stop-color:#FFFFFF"/>
				<stop  offset="1" style="stop-color:#60E6EA"/>
			</linearGradient>
			<path class="st13" d="M584.5,416.4c0,0-20.3-28.2-69.9-14.5c0,0-1.6-11.7-20.3-9.7c0,0-7.4-14.7-35.9-10.5
				c-28.5,4.1-46.5-28.5-70.4-19.7c0,0-33-10.5-57.9,14.9c0,0-24.9-7.5-37.9,10.3c0,0-25.2-11.2-46.1,4.1c0,0-16.4-2-23.3,11
				c-6.9,13,13.2,26,31.6,19c0,0,4.6,10.5,25.5,14.9c0,0,18.7-0.5,24.5,11.9c5.8,12.4,23.2,9.8,23.2,9.8s-7.5,14.6-46.2,6.9
				c-38.7-7.7-48.3,10.6-48.3,10.6s-15.2-9.1-28.4,0.6c-13.2,9.6-37.4-9.7-57.7,2.9l1,53.6l438.8-8.6L584.5,416.4z"/>
			<defs>
				<filter id="Adobe_OpacityMaskFilter_6_" filterUnits="userSpaceOnUse" x="-199.6" y="107.6" width="850.8" height="333.7">
					<feFlood  style="flood-color:white;flood-opacity:1" result="back"/>
					<feBlend  in="SourceGraphic" in2="back" mode="normal"/>
				</filter>
			</defs>
			<mask maskUnits="userSpaceOnUse" x="-199.6" y="107.6" width="850.8" height="333.7" id="SVGID_12_">
				<g class="st14">
					<defs>
						<filter id="Adobe_OpacityMaskFilter_7_" filterUnits="userSpaceOnUse" x="-199.6" y="107.6" width="850.8" height="333.7">
							<feFlood  style="flood-color:white;flood-opacity:1" result="back"/>
							<feBlend  in="SourceGraphic" in2="back" mode="normal"/>
						</filter>
					</defs>
					<mask maskUnits="userSpaceOnUse" x="-199.6" y="107.6" width="850.8" height="333.7" id="SVGID_12_">
						<g class="st15">
						</g>
					</mask>
					
						<linearGradient id="SVGID_13_" gradientUnits="userSpaceOnUse" x1="1558.1661" y1="76.833" x2="1579.2367" y2="261.2006" gradientTransform="matrix(1 0 0 1 -1362.2155 0)">
						<stop  offset="0" style="stop-color:#B3B3B3"/>
						<stop  offset="1" style="stop-color:#000000"/>
					</linearGradient>
					<path class="st16" d="M647.1,217c0,0-39.3-54.5-135.3-28.1c0,0-3.1-22.7-39.2-18.7c0,0-14.3-28.4-69.4-20.4
						c-55.1,8-89.9-55.1-136.1-38c0,0-63.9-20.3-112.1,28.8c0,0-48.1-14.4-73.3,19.9c0,0-48.7-21.6-89.2,7.9c0,0-31.8-3.8-45.2,21.4
						c-13.4,25.2,25.6,50.4,61,36.7c0,0,8.9,20.3,49.3,28.7c0,0,36.2-1,47.4,23c11.2,24,44.8,18.9,44.8,18.9s-14.4,28.3-89.3,13.4
						C-14.5,295.4-33,331-33,331S-62.4,313.4-88,332c-25.6,18.6-72.3-18.7-111.6,5.6l2,103.7l848.8-16.6L647.1,217z"/>
				</g>
			</mask>
			
				<linearGradient id="SVGID_14_" gradientUnits="userSpaceOnUse" x1="1558.1661" y1="76.833" x2="1579.2367" y2="261.2006" gradientTransform="matrix(1 0 0 1 -1362.2155 0)">
				<stop  offset="0" style="stop-color:#FFFFFF"/>
				<stop  offset="1" style="stop-color:#60E6EA"/>
			</linearGradient>
			<path class="st17" d="M647.1,217c0,0-39.3-54.5-135.3-28.1c0,0-3.1-22.7-39.2-18.7c0,0-14.3-28.4-69.4-20.4
				c-55.1,8-89.9-55.1-136.1-38c0,0-63.9-20.3-112.1,28.8c0,0-48.1-14.4-73.3,19.9c0,0-48.7-21.6-89.2,7.9c0,0-31.8-3.8-45.2,21.4
				c-13.4,25.2,25.6,50.4,61,36.7c0,0,8.9,20.3,49.3,28.7c0,0,36.2-1,47.4,23c11.2,24,44.8,18.9,44.8,18.9s-14.4,28.3-89.3,13.4
				C-14.5,295.4-33,331-33,331S-62.4,313.4-88,332c-25.6,18.6-72.3-18.7-111.6,5.6l2,103.7l848.8-16.6L647.1,217z"/>
			<defs>
				<filter id="Adobe_OpacityMaskFilter_8_" filterUnits="userSpaceOnUse" x="659.8" y="174.1" width="1015.1" height="398.2">
					<feFlood  style="flood-color:white;flood-opacity:1" result="back"/>
					<feBlend  in="SourceGraphic" in2="back" mode="normal"/>
				</filter>
			</defs>
			<mask maskUnits="userSpaceOnUse" x="659.8" y="174.1" width="1015.1" height="398.2" id="SVGID_15_">
				<g class="st18">
					<defs>
						<filter id="Adobe_OpacityMaskFilter_9_" filterUnits="userSpaceOnUse" x="659.8" y="174.1" width="1015.1" height="398.2">
							<feFlood  style="flood-color:white;flood-opacity:1" result="back"/>
							<feBlend  in="SourceGraphic" in2="back" mode="normal"/>
						</filter>
					</defs>
					<mask maskUnits="userSpaceOnUse" x="659.8" y="174.1" width="1015.1" height="398.2" id="SVGID_15_">
						<g class="st19">
						</g>
					</mask>
					
						<linearGradient id="SVGID_16_" gradientUnits="userSpaceOnUse" x1="624.9095" y1="137.3684" x2="650.0499" y2="357.3473" gradientTransform="matrix(-1 0 0 1 1827.8929 0)">
						<stop  offset="0" style="stop-color:#B3B3B3"/>
						<stop  offset="1" style="stop-color:#000000"/>
					</linearGradient>
					<path class="st20" d="M664.6,304.6c0,0,46.9-65.1,161.4-33.5c0,0,3.7-27.1,46.8-22.3c0,0,17.1-33.9,82.9-24.3
						c65.8,9.5,107.3-65.7,162.4-45.4c0,0,76.2-24.2,133.7,34.4c0,0,57.4-17.2,87.5,23.7c0,0,58.1-25.7,106.5,9.4
						c0,0,37.9-4.6,53.9,25.5c15.9,30-30.5,60.1-72.8,43.8c0,0-10.6,24.2-58.8,34.3c0,0-43.2-1.3-56.5,27.4
						c-13.4,28.7-53.5,22.6-53.5,22.6s17.2,33.7,106.6,15.9c89.4-17.8,111.5,24.6,111.5,24.6s35.1-20.9,65.6,1.3
						c30.5,22.2,86.3-22.3,133.2,6.7l-2.4,123.8L659.8,552.5L664.6,304.6z"/>
				</g>
			</mask>
			
				<linearGradient id="SVGID_17_" gradientUnits="userSpaceOnUse" x1="624.9095" y1="137.3684" x2="650.0499" y2="357.3473" gradientTransform="matrix(-1 0 0 1 1827.8929 0)">
				<stop  offset="0" style="stop-color:#FFFFFF"/>
				<stop  offset="1" style="stop-color:#60E6EA"/>
			</linearGradient>
			<path class="st21" d="M664.6,304.6c0,0,46.9-65.1,161.4-33.5c0,0,3.7-27.1,46.8-22.3c0,0,17.1-33.9,82.9-24.3
				c65.8,9.5,107.3-65.7,162.4-45.4c0,0,76.2-24.2,133.7,34.4c0,0,57.4-17.2,87.5,23.7c0,0,58.1-25.7,106.5,9.4
				c0,0,37.9-4.6,53.9,25.5c15.9,30-30.5,60.1-72.8,43.8c0,0-10.6,24.2-58.8,34.3c0,0-43.2-1.3-56.5,27.4
				c-13.4,28.7-53.5,22.6-53.5,22.6s17.2,33.7,106.6,15.9c89.4-17.8,111.5,24.6,111.5,24.6s35.1-20.9,65.6,1.3
				c30.5,22.2,86.3-22.3,133.2,6.7l-2.4,123.8L659.8,552.5L664.6,304.6z"/>
			<defs>
				<filter id="Adobe_OpacityMaskFilter_10_" filterUnits="userSpaceOnUse" x="925" y="96.8" width="679.3" height="266.5">
					<feFlood  style="flood-color:white;flood-opacity:1" result="back"/>
					<feBlend  in="SourceGraphic" in2="back" mode="normal"/>
				</filter>
			</defs>
			<mask maskUnits="userSpaceOnUse" x="925" y="96.8" width="679.3" height="266.5" id="SVGID_18_">
				<g class="st22">
					<defs>
						<filter id="Adobe_OpacityMaskFilter_11_" filterUnits="userSpaceOnUse" x="925" y="96.8" width="679.3" height="266.5">
							<feFlood  style="flood-color:white;flood-opacity:1" result="back"/>
							<feBlend  in="SourceGraphic" in2="back" mode="normal"/>
						</filter>
					</defs>
					<mask maskUnits="userSpaceOnUse" x="925" y="96.8" width="679.3" height="266.5" id="SVGID_18_">
						<g class="st23">
						</g>
					</mask>
					
						<linearGradient id="SVGID_19_" gradientUnits="userSpaceOnUse" x1="539.3949" y1="72.1739" x2="556.2182" y2="219.3778" gradientTransform="matrix(-1 0 0 1 1827.8929 0)">
						<stop  offset="0" style="stop-color:#B3B3B3"/>
						<stop  offset="1" style="stop-color:#000000"/>
					</linearGradient>
					<path class="st24" d="M928.3,184.1c0,0,31.4-43.5,108-22.4c0,0,2.5-18.1,31.3-14.9c0,0,11.4-22.7,55.4-16.3
						c44,6.4,71.8-44,108.7-30.4c0,0,51-16.2,89.5,23c0,0,38.4-11.5,58.6,15.9c0,0,38.9-17.2,71.2,6.3c0,0,25.4-3,36.1,17.1
						c10.7,20.1-20.4,40.2-48.7,29.3c0,0-7.1,16.2-39.3,22.9c0,0-28.9-0.8-37.8,18.3c-8.9,19.2-35.8,15.1-35.8,15.1
						s11.5,22.6,71.3,10.7c59.8-11.9,74.6,16.4,74.6,16.4s23.5-14,43.9,0.9c20.4,14.8,57.7-15,89.1,4.5l-1.6,82.8L925,350
						L928.3,184.1z"/>
				</g>
			</mask>
			
				<linearGradient id="SVGID_20_" gradientUnits="userSpaceOnUse" x1="539.3949" y1="72.1739" x2="556.2182" y2="219.3778" gradientTransform="matrix(-1 0 0 1 1827.8929 0)">
				<stop  offset="0" style="stop-color:#FFFFFF"/>
				<stop  offset="1" style="stop-color:#60E6EA"/>
			</linearGradient>
			<path class="st25" d="M928.3,184.1c0,0,31.4-43.5,108-22.4c0,0,2.5-18.1,31.3-14.9c0,0,11.4-22.7,55.4-16.3
				c44,6.4,71.8-44,108.7-30.4c0,0,51-16.2,89.5,23c0,0,38.4-11.5,58.6,15.9c0,0,38.9-17.2,71.2,6.3c0,0,25.4-3,36.1,17.1
				c10.7,20.1-20.4,40.2-48.7,29.3c0,0-7.1,16.2-39.3,22.9c0,0-28.9-0.8-37.8,18.3c-8.9,19.2-35.8,15.1-35.8,15.1
				s11.5,22.6,71.3,10.7c59.8-11.9,74.6,16.4,74.6,16.4s23.5-14,43.9,0.9c20.4,14.8,57.7-15,89.1,4.5l-1.6,82.8L925,350L928.3,184.1
				z"/>
		</g>
		<path class="st26" d="M294.8,651c0,0-41.7-36.3-66.7-57.3c-25-21-49.1-51-102.3-41.6C71.7,561.6,18.2,651-7.5,651H294.8z"/>
		<circle class="st27" cx="700" cy="647.7" r="99.3"/>
		<g>
			<polygon class="st28" points="454,400.7 487.8,437 502,411.7 521.5,421.4 464,325.5 411.7,406.9 430.7,439 			"/>
			<polygon class="st29" points="659.2,651 521.5,421.4 502,411.7 487.8,437 454,400.7 430.7,439 411.7,406.9 255,651 			"/>
		</g>
		<g>
			<polygon class="st28" points="827,542 838.5,532 848.5,537 852.5,520 869.6,534.4 839,485.5 809.7,533.4 817.3,532 			"/>
			<polygon class="st30" points="942.5,651 869.6,534.4 852.5,520 848.5,537 838.5,532 827,542 817.3,532 809.7,533.4 737.7,651 			
				"/>
		</g>
		<g>
			<polygon class="st28" points="906.5,531 922.3,514 937.5,535.5 945.5,514 988.8,553.7 983,516.8 1030,568.3 1024.3,552.9 
				942.5,456.3 888.8,515.2 904.8,514 			"/>
			<polygon class="st29" points="1024.3,552.9 1030,568.3 983,516.8 988.8,553.7 945.5,514 937.5,535.5 922.3,514 906.5,531 
				904.8,514 888.8,515.2 870.3,535.5 942.5,651 1107.3,651 			"/>
		</g>
		<g>
			<polygon class="st31" points="1196.5,525.9 1196.5,538.3 1178.5,526 1174.5,556.5 1160.5,530 1144,556.5 1141,531.5 1116,548.5 
				1112.7,541.6 1057.6,592.2 1107.3,651 1292.3,651 			"/>
			<polygon class="st28" points="1141,531.5 1144,556.5 1160.5,530 1174.5,556.5 1178.5,526 1196.5,538.3 1196.5,525.9 1169,490 
				1112.7,541.6 1116,548.5 			"/>
		</g>
		<g>
			<path class="st32" d="M564,656.9c0,0.2,0,0.3,0,0.3C563.9,657.1,563.9,657,564,656.9z"/>
			<path class="st32" d="M473.1,674.1c0-0.3,0-0.5,0-0.8C473.1,673.8,473.1,674.1,473.1,674.1z"/>
		</g>
		<g>
			<path class="st33" d="M927.7,674.1c0-0.3,0-0.5,0-0.8C927.7,673.8,927.7,674.1,927.7,674.1z"/>
			<path class="st33" d="M836.9,656.9c0,0.2,0,0.3,0,0.3C836.9,657.1,836.9,657,836.9,656.9z"/>
		</g>
		<path class="st34" d="M639,651c0,0-41.7-31.7-66.7-50s-49.1-44.5-102.3-36.3C415.9,573,362.3,651,336.7,651H639z"/>
		<path class="st35" d="M480.7,651c0,0-53.2-14-99.3-37.3c-45.6-23.1-107.3-22.3-157.3,0C176.3,635,123.7,651,123.7,651H480.7z"/>
		<path class="st35" d="M1437.9,651c0,0-53.2-14-99.3-37.3c-45.6-23.1-107.3-22.3-157.3,0c-47.7,21.3-100.3,37.3-100.3,37.3H1437.9z
			"/>
		<path class="st26" d="M888.3,651c0,0,38.3-9.7,61.3-15.3c23-5.7,99.3-33.3,192.3,0c0,0,41,13.8,64.8,15.3H888.3z"/>
		<g>
			<g>
				<g>
					<polygon class="st36" points="639,651 0,876.8 0,980 161,980 662.3,651 					"/>
					<polygon class="st36" points="761.8,651 737.7,651 1239,980 1400,980 1400,876.5 					"/>
					<polygon class="st37" points="662.3,651 161,980 226.3,980 676,651 					"/>
					<polygon class="st37" points="724.8,651 1174.5,980 1239,980 737.7,651 					"/>
					<polygon class="st38" points="700,651 676,651 226.3,980 700,980 1174.5,980 724.8,651 					"/>
				</g>
				<polygon class="st39" points="0,651 0,876.8 639,651 				"/>
			</g>
			<g>
				<g>
					<circle class="st35" cx="127.8" cy="579.6" r="65.3"/>
					<path class="st35" d="M104.4,664.1c-2.6-6.4-8.8-10.9-16.1-10.9c-3.6,0-7,1.1-9.7,3c-1.7-0.6-3.6-0.9-5.5-0.9
						c-9.6,0-17.3,7.8-17.3,17.3c0,2.7,0.7,5.3,1.8,7.6c-1.1,2.3-1.8,4.9-1.8,7.6c0,7.7,5.1,14.3,12.1,16.5
						c1.1,8.5,8.3,15.1,17.2,15.1c9.6,0,17.3-7.8,17.3-17.3c0-1.2-0.1-2.4-0.4-3.6c0.1,0,0.3,0,0.4,0c9.6,0,17.3-7.8,17.3-17.3
						C119.7,672.4,113,665.1,104.4,664.1z"/>
					<path class="st35" d="M195.5,744.3c7.2-2.9,12.3-9.9,12.3-18.1c0-4.1-1.2-7.8-3.4-11c0.7-1.9,1-4,1-6.2
						c0-10.8-8.7-19.5-19.5-19.5c-3.1,0-6,0.7-8.6,2c-2.6-1.3-5.5-2-8.6-2c-8.7,0-16.1,5.7-18.6,13.6c-9.6,1.2-17.1,9.4-17.1,19.4
						c0,10.8,8.7,19.5,19.5,19.5c1.4,0,2.8-0.2,4.1-0.4c0,0.1,0,0.3,0,0.4c0,10.8,8.7,19.5,19.5,19.5
						C186.1,761.5,194.4,754,195.5,744.3z"/>
					<g>
						<polygon class="st40" points="107.3,704.7 101.6,683.9 104.8,702.9 86.9,690.5 100.6,703.6 81.8,702.6 103.1,706 128.1,729.9 
							128.4,719.4 						"/>
						<polygon class="st40" points="189.3,743.4 170.2,746.6 179.5,736 169.2,744.5 170.2,725 166.8,746.4 142.2,766.3 142.6,777.9 
							167.9,749.3 						"/>
						<polygon class="st41" points="142.2,766.3 138,643.5 189.2,589.5 137.6,631.8 136.6,603.5 136.4,596.3 134.5,542.1 
							132.8,593.7 94.4,566 132.4,604.6 131.3,637 131.2,637 89.9,609.8 130.9,648 128.4,719.4 128.1,729.9 125,820 144.1,820 
							142.6,777.9 						"/>
					</g>
				</g>
				<g>
					<circle class="st42" cx="283.2" cy="569.1" r="53.3"/>
					<path class="st42" d="M264.1,638c-2.1-5.2-7.2-8.9-13.1-8.9c-2.9,0-5.7,0.9-7.9,2.4c-1.4-0.5-2.9-0.7-4.5-0.7
						c-7.8,0-14.1,6.3-14.1,14.1c0,2.2,0.5,4.3,1.5,6.2c-0.9,1.9-1.5,4-1.5,6.2c0,6.3,4.1,11.7,9.9,13.5c0.9,7,6.8,12.4,14,12.4
						c7.8,0,14.1-6.3,14.1-14.1c0-1-0.1-2-0.3-2.9c0.1,0,0.2,0,0.3,0c7.8,0,14.1-6.3,14.1-14.1C276.6,644.8,271.1,638.8,264.1,638z"
						/>
					<path class="st42" d="M338.4,703.4c5.9-2.4,10-8.1,10-14.8c0-3.3-1-6.4-2.8-9c0.5-1.6,0.8-3.3,0.8-5.1
						c0-8.8-7.1-15.9-15.9-15.9c-2.5,0-4.9,0.6-7,1.6c-2.1-1-4.5-1.6-7-1.6c-7.1,0-13.2,4.7-15.2,11.1c-7.9,1-13.9,7.7-13.9,15.8
						c0,8.8,7.1,15.9,15.9,15.9c1.1,0,2.2-0.1,3.3-0.4c0,0.1,0,0.2,0,0.4c0,8.8,7.1,15.9,15.9,15.9
						C330.8,717.5,337.5,711.3,338.4,703.4z"/>
					<g>
						<polygon class="st40" points="266.5,671.1 261.8,654.2 264.4,669.7 249.8,659.5 261,670.2 245.7,669.4 263,672.2 283.4,691.7 
							283.7,683.1 						"/>
						<polygon class="st40" points="333.3,702.7 317.8,705.3 325.4,696.7 316.9,703.6 317.8,687.7 315,705.1 295,721.4 295.3,730.9 
							315.9,707.5 						"/>
						<polygon class="st41" points="295,721.4 291.5,621.2 333.3,577.2 291.2,611.7 290.4,588.6 290.2,582.7 288.7,538.5 
							287.2,580.6 255.9,558 286.9,589.5 286,615.9 286,615.9 252.3,593.7 285.7,624.9 283.7,683.1 283.4,691.7 280.9,765.2 
							296.5,765.2 295.3,730.9 						"/>
					</g>
				</g>
				<g>
					<circle class="st43" cx="421.3" cy="550.9" r="45.9"/>
					<path class="st43" d="M437.8,610.4c1.8-4.5,6.2-7.7,11.3-7.7c2.5,0,4.9,0.8,6.8,2.1c1.2-0.4,2.5-0.6,3.9-0.6
						c6.7,0,12.2,5.5,12.2,12.2c0,1.9-0.5,3.7-1.3,5.4c0.8,1.6,1.3,3.4,1.3,5.4c0,5.4-3.6,10.1-8.5,11.6c-0.8,6-5.9,10.7-12.1,10.7
						c-6.7,0-12.2-5.5-12.2-12.2c0-0.9,0.1-1.7,0.3-2.5c-0.1,0-0.2,0-0.3,0c-6.7,0-12.2-5.5-12.2-12.2
						C427,616.2,431.7,611.1,437.8,610.4z"/>
					<path class="st43" d="M373.7,666.8c-5.1-2-8.6-7-8.6-12.7c0-2.9,0.9-5.5,2.4-7.7c-0.5-1.4-0.7-2.8-0.7-4.4
						c0-7.6,6.1-13.7,13.7-13.7c2.2,0,4.2,0.5,6,1.4c1.8-0.9,3.9-1.4,6-1.4c6.1,0,11.3,4,13.1,9.6c6.8,0.9,12,6.6,12,13.6
						c0,7.6-6.1,13.7-13.7,13.7c-1,0-1.9-0.1-2.9-0.3c0,0.1,0,0.2,0,0.3c0,7.6-6.1,13.7-13.7,13.7
						C380.3,678.9,374.5,673.6,373.7,666.8z"/>
					<g>
						<polygon class="st40" points="435.7,638.9 439.8,624.3 437.5,637.7 450,628.9 440.4,638.2 453.6,637.4 438.7,639.8 
							421.1,656.6 420.9,649.3 						"/>
						<polygon class="st40" points="378.1,666.1 391.4,668.4 384.9,661 392.2,666.9 391.5,653.2 393.9,668.2 411.1,682.3 
							410.9,690.4 393.1,670.3 						"/>
						<polygon class="st41" points="411.1,682.3 414.1,595.9 378.1,558 414.4,587.7 415.1,567.8 415.3,562.7 416.6,524.6 
							417.8,560.9 444.8,541.4 418.1,568.6 418.9,591.3 418.9,591.4 447.9,572.2 419.1,599.1 420.9,649.3 421.1,656.6 423.3,720 
							409.8,720 410.9,690.4 						"/>
					</g>
				</g>
				<g>
					<circle class="st44" cx="525.2" cy="551.2" r="36.5"/>
					<path class="st44" d="M512.1,598.4c-1.4-3.6-4.9-6.1-9-6.1c-2,0-3.9,0.6-5.4,1.7c-1-0.3-2-0.5-3.1-0.5c-5.3,0-9.7,4.3-9.7,9.7
						c0,1.5,0.4,3,1,4.3c-0.6,1.3-1,2.7-1,4.3c0,4.3,2.8,8,6.8,9.2c0.6,4.8,4.7,8.5,9.6,8.5c5.3,0,9.7-4.3,9.7-9.7
						c0-0.7-0.1-1.4-0.2-2c0.1,0,0.1,0,0.2,0c5.3,0,9.7-4.3,9.7-9.7C520.6,603,516.9,598.9,512.1,598.4z"/>
					<path class="st44" d="M563,643.1c4-1.6,6.8-5.5,6.8-10.1c0-2.3-0.7-4.4-1.9-6.1c0.4-1.1,0.6-2.2,0.6-3.5
						c0-6-4.9-10.9-10.9-10.9c-1.7,0-3.3,0.4-4.8,1.1c-1.4-0.7-3.1-1.1-4.8-1.1c-4.9,0-9,3.2-10.4,7.6c-5.4,0.7-9.5,5.3-9.5,10.8
						c0,6,4.9,10.9,10.9,10.9c0.8,0,1.5-0.1,2.3-0.2c0,0.1,0,0.2,0,0.2c0,6,4.9,10.9,10.9,10.9C557.7,652.8,562.3,648.6,563,643.1z"
						/>
					<g>
						<polygon class="st40" points="513.7,621 510.5,609.4 512.3,620.1 502.3,613.1 510,620.4 499.5,619.9 511.4,621.8 525.3,635.1 
							525.5,629.3 						"/>
						<polygon class="st40" points="559.5,642.6 548.9,644.4 554,638.5 548.3,643.2 548.8,632.4 546.9,644.3 533.2,655.5 
							533.4,661.9 547.5,645.9 						"/>
						<polygon class="st41" points="533.2,655.5 530.9,586.9 559.4,556.8 530.6,580.4 530.1,564.6 530,560.5 528.9,530.3 
							527.9,559.1 506.5,543.6 527.7,565.2 527.1,583.3 527.1,583.3 504,568 526.9,589.4 525.5,629.3 525.3,635.1 523.6,685.4 
							534.3,685.4 533.4,661.9 						"/>
					</g>
				</g>
			</g>
			<g>
				<path class="st39" d="M1231.8,727c-40.5,2.7-203.4,4.6-180.2-33c23.2-37.6,88.7-0.3,163.5-16c60.7-12.7,152.3,5.7,184.8,13.1
					V651H761.8L1400,876.5V755.8C1319.5,755.2,1270.4,724.5,1231.8,727z"/>
				<linearGradient id="SVGID_21_" gradientUnits="userSpaceOnUse" x1="770" y1="714.7273" x2="1374.5048" y2="714.7273">
					<stop  offset="0" style="stop-color:#FFFFFF"/>
					<stop  offset="1" style="stop-color:#60E6EA"/>
				</linearGradient>
				<path class="st45" d="M1215.2,678c-74.9,15.6-140.3-21.6-163.5,16c-23.2,37.6,139.7,35.7,180.2,33
					c38.6-2.5,87.7,28.2,168.2,28.8v-64.7C1367.5,683.7,1275.9,665.3,1215.2,678z"/>
			</g>
			<g>
				<path class="st33" d="M473.1,674.1c0-0.3,0-0.5,0-0.8C473.1,673.8,473.1,674.1,473.1,674.1z"/>
				<path class="st33" d="M564,656.9c0,0.2,0,0.3,0,0.3C563.9,657.1,563.9,657,564,656.9z"/>
				<path class="st26" d="M639,651c0,0,2.1-4.2-4.5-7.5c-1.7-2.9-4.8-1.4-4.8-1.4c-4.4-3.9-7.2,0-7.2,0c-1.4-3.3-4.3-1.7-4.3-1.7
					c-4.5,0.3-4.4,4.9-4.4,4.9c-1.3-2.3-2.5-0.2-2.5-0.2c-3.1,0-3.3,3.1-3.3,3.1c0.2-1.4-1.5-1.4-1.5-1.4c-3.3-2.3-4,3.1-4,3.1
					c-0.5-2-2.4-1.4-2.4-1.4c-3.8-2.2-5.2,2.8-5.2,2.8c-2.2-1.3-3,0.5-3,0.5c-4.7-1.6-3.3,3.6-3.3,3.6c-5.7-2-7,2.9-7,2.9
					c-3.1-3.6-6.2-1.1-6.2-1.1c1.6-4.9-1.2-5.9-1.2-5.9c-2.2-2.5-5.1-0.1-5.1-0.1c-4.3,0.2-5,4.3-5.2,5.5c0,0.1,0,0.2,0,0.3
					c0,0,0-0.1,0-0.3c0.3-4-2.4-2.9-2.4-2.9c-8.9,1.7-5.1,8.6-5.1,8.6c-2.3-2-3.6,0.2-3.6,0.2c-2.2-2-4.7,0.7-4.7,0.7
					c-2.3-3.2-4.7-0.2-4.7-0.2c-0.7-2.9-4.1-2.1-4.1-2.1c-1.8-5.2-5.1-3.3-5.1-3.3c-2-0.1-4.5,2.9-4.5,2.9c-0.4-4-4.4-3.4-4.4-3.4
					c-2.8-1.1-3.9,2.1-3.9,2.1c-4.1-0.3-3.9,3.3-3.9,3.3c-1-2.5-2.8-1.1-2.8-1.1c-4.3,0.1-4.3,3.9-4.3,3.9c-4.6,0.2-5.7,3.1-5.7,3.1
					c-7-3.7-8.4,2.7-8.4,2.7c-3.4-3.4-7.1-0.9-7.1-0.9c0.9-2.1-1.7-2.2-1.7-2.2c1.5-5.7-2.3-5.3-2.3-5.3c-8.3-4.1-6.9,7.4-6.9,7.4
					c-4.2-0.8-4.9,1.8-4.9,3.1c0,0.2,0,0.5,0,0.8c0,0-0.1-0.3,0-0.8c-0.4-2.9-3.8-2.7-3.8-2.7c-6.9-3.1-6.5,7.8-6.5,7.8
					c-3.6-1.6-4.3,1.1-4.3,1.1c1.4-4.2-2.9-4-2.9-4c-1.2-2.8-3.2,0.6-3.2,0.6c-4.5-5.3-7.5,0.5-7.5,0.5c-1.9-8-10.4-5.3-10.4-5.3
					c-13.7,3.1-7.6,17.6-7.6,17.6c-9,2.1-4.4,10.9-4.4,10.9c-3-0.9-4.5,2.9-4.5,2.9s-7.7,6.4-4.6,12.4c0,0-7.6,2.1-6.9,9.8
					c-0.1,0.7,0.2,1.4,0.2,1.4c0,0,0,0,0,0c-3.7-2-6.2,2-6.2,2c-1.7-2.9-4.8-1.4-4.8-1.4c-4.4-3.9-7.2,0-7.2,0
					c-1.4-3.3-4.4-1.7-4.4-1.7c-4.5,0.3-4.4,4.9-4.4,4.9c-1.3-2.3-2.5-0.2-2.5-0.2c-3.1,0-3.3,3.1-3.3,3.1c0.2-1.4-1.5-1.4-1.5-1.4
					c-3.3-2.3-4,3.1-4,3.1c-0.5-2-2.4-1.4-2.4-1.4c-3.8-2.2-5.2,2.8-5.2,2.8c-2.2-1.3-3,0.5-3,0.5c-4.7-1.6-3.3,3.6-3.3,3.6
					c-5.7-2-7,2.9-7,2.9c-3.1-3.6-6.2-1.1-6.2-1.1c1.6-4.9-1.2-5.9-1.2-5.9c-2.2-2.5-5.1-0.1-5.1-0.1c-4.3,0.2-5,4.3-5.2,5.5
					c0.3-4-2.4-2.9-2.4-2.9c-8.9,1.7-5.1,8.6-5.1,8.6c-2.3-2-3.6,0.2-3.6,0.2c-2.2-2-4.7,0.7-4.7,0.7c-2.3-3.2-4.7-0.2-4.7-0.2
					c-0.7-2.9-4.1-2.1-4.1-2.1c-1.8-5.2-5.1-3.3-5.1-3.3c-2-0.1-4.5,2.9-4.5,2.9c-0.4-4-4.4-3.4-4.4-3.4c-2.8-1.1-3.9,2.1-3.9,2.1
					c-4.1-0.3-3.9,3.3-3.9,3.3c-1-2.5-2.8-1.1-2.8-1.1c-4.3,0.1-4.3,3.9-4.3,3.9c-4.6,0.2-5.7,3.1-5.7,3.1c-7-3.7-8.4,2.7-8.4,2.7
					c-3.4-3.4-7.1-0.9-7.1-0.9c0.9-2.1-1.7-2.2-1.7-2.2c1.5-5.7-2.3-5.3-2.3-5.3c-8.3-4.1-6.9,7.4-6.9,7.4c-4.2-0.8-4.9,1.8-4.9,3.1
					c-0.4-2.9-3.8-2.7-3.8-2.7c-6.9-3.1-6.5,7.8-6.5,7.8c-3.6-1.6-4.3,1.1-4.3,1.1c1.4-4.2-2.9-4-2.9-4c-1.2-2.8-3.2,0.6-3.2,0.6
					c-4.5-5.3-7.5,0.5-7.5,0.5c-1.9-8-10.4-5.3-10.4-5.3c-13.7,3.1-7.6,17.6-7.6,17.6c-9,2.1-4.4,10.9-4.4,10.9
					c-3-0.9-4.5,2.9-4.5,2.9c2.2-11-8.4-14.9-8.4-14.9c-5.6-2.9-6,4.4-6,4.4c-0.9,1.2-1.8,0-1.8,0c-1.6-4.4-5.4-2.9-5.4-2.9
					c-5-3.1-6.2,1.8-6.2,1.8c-1.4-0.9-2.4,0.3-2.4,0.3c0.4-4.8-4.5-4.8-4.5-4.8c-5.1-2.7-7,2.4-7,2.4c-4.2-1.3-5.4,3-5.4,3
					c-0.5-1.5-2-1.3-2-1.3c-4.1-4.4-6.8,0.4-6.8,0.4c-2.7,0.6-3,1.9-3,2.8c-0.9-2.4-3.3-2-3.3-2c-6-2.3-5.8,4.5-5.8,4.5
					c-9.9,3.6-6.2,14.8-6.2,14.8c-4.9-1.9-5.3,3.4-5.3,3.4c-2.7-1.3-4,1.8-4,1.8c0.3-5.7-3.4-5.9-3.4-5.9c-5.5-5.6-8.8,1.6-8.8,1.6
					c-0.9-7.8-5.8-6.7-5.8-6.7c-9.3-6.1-13.4,3.5-13.4,3.5c-5.7-0.3-7,4.2-7,4.2c-6.6-3.2-8.5,5.6-8.5,5.6c-0.8-3-4.2-2.6-4.2-2.6
					c-8.1,0.9-7.1,10.7-7.1,10.7c-4.2-0.9-5,2.3-5,2.3s1.2-7.2-5.5-7.8c-6.7-0.5-6.4,7.4-6.4,7.4c-1-1.3-2.5-0.1-2.5-0.1
					c-7.9-2.5-6.8,5.2-6.8,5.2c-4.5,0.2-3,9-3,9c0.6,1.8-1.9,1.1-1.9,1.1c-4.9-4.2-9.2,0-9.2,0c-0.7-1.3-1.4-1.7-2.1-1.8v49.9
					L639,651z"/>
			</g>
			<g>
				<path class="st33" d="M836.9,656.9c0,0.1,0,0.2,0,0.3C836.9,657.3,836.9,657.1,836.9,656.9z"/>
				<path class="st33" d="M927.7,673.3c0,0.2,0,0.5,0,0.8C927.7,674.1,927.7,673.8,927.7,673.3z"/>
				<path class="st26" d="M1398.8,828.6c0,0-4.3-4.3-9.2,0c0,0-2.6,0.7-1.9-1.1c0,0,1.5-8.8-3-9c0,0,1-7.8-6.8-5.2
					c0,0-1.5-1.2-2.5,0.1c0,0,0.4-7.9-6.4-7.4s-5.5,7.8-5.5,7.8s-0.8-3.2-5-2.3c0,0,1-9.9-7.1-10.7c0,0-3.4-0.3-4.2,2.6
					c0,0-1.9-8.7-8.5-5.6c0,0-1.3-4.5-7-4.2c0,0-4-9.6-13.4-3.5c0,0-4.9-1.2-5.8,6.7c0,0-3.4-7.2-8.8-1.6c0,0-3.7,0.2-3.4,5.9
					c0,0-1.4-3.1-4-1.8c0,0-0.4-5.3-5.3-3.4c0,0,3.7-11.2-6.2-14.8c0,0,0.3-6.9-5.8-4.5c0,0-2.4-0.3-3.3,2c0.1-0.9-0.2-2.2-3-2.8
					c0,0-2.7-4.8-6.8-0.4c0,0-1.4-0.2-2,1.3c0,0-1.2-4.3-5.4-3c0,0-1.9-5.1-7-2.4c0,0-4.9,0-4.5,4.8c0,0-1-1.2-2.4-0.3
					c0,0-1.2-4.9-6.2-1.8c0,0-3.8-1.6-5.4,2.9c0,0-0.9,1.3-1.8,0c0,0-0.4-7.2-6-4.4c0,0-10.6,3.9-8.4,14.9c0,0-1.6-3.9-4.5-2.9
					c0,0,4.6-8.8-4.4-10.9c0,0,6-14.5-7.6-17.6c0,0-8.4-2.7-10.4,5.3c0,0-3-5.8-7.5-0.5c0,0-2-3.4-3.2-0.6c0,0-4.3-0.2-2.9,4
					c0,0-0.7-2.7-4.3-1.1c0,0,0.4-10.9-6.5-7.8c0,0-3.4-0.2-3.8,2.7c0-1.3-0.7-3.9-4.9-3.1c0,0,1.4-11.4-6.9-7.4
					c0,0-3.8-0.4-2.3,5.3c0,0-2.6,0.1-1.7,2.2c0,0-3.7-2.4-7.1,0.9c0,0-1.4-6.4-8.4-2.7c0,0-1.2-2.9-5.7-3.1c0,0,0-3.8-4.3-3.9
					c0,0-1.8-1.3-2.8,1.1c0,0,0.1-3.6-3.9-3.3c0,0-1.1-3.2-3.9-2.1c0,0-4.1-0.6-4.4,3.4c0,0-2.5-3-4.5-2.9c0,0-3.3-1.9-5.1,3.3
					c0,0-3.4-0.8-4.1,2.1c0,0-2.5-3-4.7,0.2c0,0-2.5-2.7-4.7-0.7c0,0-1.3-2.2-3.6-0.2c0,0,3.7-6.9-5.1-8.6c0,0-2.7-1.1-2.4,2.9
					c-0.1-1.2-0.8-5.3-5.2-5.5c0,0-2.9-2.5-5.1,0.1c0,0-2.7,1-1.2,5.9c0,0-3.1-2.5-6.2,1.1c0,0-1.3-4.9-7-2.9c0,0,1.4-5.2-3.3-3.6
					c0,0-0.8-1.9-3-0.5c0,0-1.3-5-5.2-2.8c0,0-1.9-0.6-2.4,1.4c0,0-0.6-5.4-4-3.1c0,0-1.8-0.1-1.5,1.4c0,0-0.3-3-3.3-3.1
					c0,0-1.2-2.1-2.5,0.2c0,0,0.2-4.6-4.4-4.9c0,0-2.9-1.6-4.3,1.7c0,0-2.9-4-7.2,0c0,0-3.1-1.5-4.8,1.4c0,0-2.5-4-6.2-2
					c0,0,0,0,0,0c0,0,0.3-0.7,0.2-1.4c0.7-7.6-6.9-9.8-6.9-9.8c3.1-6-4.6-12.4-4.6-12.4s-1.6-3.9-4.5-2.9c0,0,4.6-8.8-4.4-10.9
					c0,0,6-14.5-7.6-17.6c0,0-8.4-2.7-10.4,5.3c0,0-3-5.8-7.5-0.5c0,0-2-3.4-3.2-0.6c0,0-4.3-0.2-2.9,4c0,0-0.7-2.7-4.3-1.1
					c0,0,0.4-10.9-6.5-7.8c0,0-3.4-0.2-3.8,2.7c0,0.5,0,0.8,0,0.8c0-0.3,0-0.5,0-0.8c0-1.3-0.7-3.9-4.9-3.1c0,0,1.4-11.4-6.9-7.4
					c0,0-3.8-0.4-2.3,5.3c0,0-2.6,0.1-1.7,2.2c0,0-3.7-2.4-7.1,0.9c0,0-1.4-6.4-8.4-2.7c0,0-1.2-2.9-5.7-3.1c0,0,0-3.8-4.3-3.9
					c0,0-1.8-1.3-2.8,1.1c0,0,0.1-3.6-3.9-3.3c0,0-1.1-3.2-3.9-2.1c0,0-4.1-0.6-4.4,3.4c0,0-2.5-3-4.5-2.9c0,0-3.3-1.9-5.1,3.3
					c0,0-3.4-0.8-4.1,2.1c0,0-2.5-3-4.7,0.2c0,0-2.5-2.7-4.7-0.7c0,0-1.3-2.2-3.6-0.2c0,0,3.7-6.9-5.1-8.6c0,0-2.7-1.1-2.4,2.9
					c0,0.2,0,0.3,0,0.3c0-0.1,0-0.2,0-0.3c-0.1-1.2-0.8-5.3-5.2-5.5c0,0-2.9-2.5-5.1,0.1c0,0-2.7,1-1.2,5.9c0,0-3.1-2.5-6.2,1.1
					c0,0-1.3-4.9-7-2.9c0,0,1.4-5.2-3.3-3.6c0,0-0.8-1.9-3-0.5c0,0-1.3-5-5.2-2.8c0,0-1.9-0.6-2.4,1.4c0,0-0.6-5.4-4-3.1
					c0,0-1.8-0.1-1.5,1.4c0,0-0.3-3-3.3-3.1c0,0-1.2-2.1-2.5,0.2c0,0,0.2-4.6-4.4-4.9c0,0-2.9-1.6-4.3,1.7c0,0-2.9-4-7.2,0
					c0,0-3.1-1.5-4.8,1.4c-6.7,3.3-4.5,7.5-4.5,7.5L1400,876.5v-49.3C1399.6,827.4,1399.2,827.9,1398.8,828.6z"/>
			</g>
			<g>
				<polygon class="st28" points="678.9,651.4 251,980 275.4,980 680.4,651.4 				"/>
				<polygon class="st28" points="721.7,651.4 720.3,651.4 1124.1,980 1149.3,980 				"/>
			</g>
			<g>
				<polygon class="st28" points="708.5,980 700.6,651.5 699.4,651.5 691.5,980 				"/>
			</g>
		</g>
		<g>
			<path class="st44" d="M1351.1,599.1c0.3-1.1,0.5-2.2,0.5-3.3c0-4.1-2.3-7.7-5.7-9.6c0.1-0.4,0.2-0.9,0.2-1.4c0-3-2.5-5.5-5.5-5.5
				s-5.5,2.5-5.5,5.5c0,0.5,0.1,0.9,0.2,1.4c-3.4,1.9-5.7,5.5-5.7,9.6c0,1.2,0.2,2.3,0.5,3.3c-3.1,2.8-5,6.9-5,11.4
				c0,8.5,6.9,15.5,15.5,15.5s15.5-6.9,15.5-15.5C1356.1,606,1354.2,601.9,1351.1,599.1z"/>
			<path class="st44" d="M1365.8,640.5c0.8-0.1,1.5-0.4,2.3-0.8c2.6-1.4,4-4,4.1-6.8c0.3-0.1,0.6-0.2,0.9-0.3c1.9-1,2.6-3.4,1.6-5.3
				c-1-1.9-3.4-2.6-5.3-1.6c-0.3,0.2-0.6,0.4-0.8,0.6c-2.3-1.5-5.3-1.7-7.9-0.3c-0.7,0.4-1.4,0.9-1.9,1.5c-2.8-1-6-0.8-8.8,0.7
				c-5.3,2.9-7.3,9.5-4.4,14.9c2.9,5.3,9.5,7.3,14.9,4.4C1363.2,646,1365,643.4,1365.8,640.5z"/>
			<path class="st44" d="M1325.1,628.9c-0.4-0.7-0.8-1.4-1.4-1.9c-2.1-2.1-5-2.7-7.6-2c-0.2-0.3-0.4-0.5-0.6-0.8
				c-1.5-1.5-4-1.5-5.5,0c-1.5,1.5-1.5,4,0,5.5c0.2,0.2,0.5,0.4,0.8,0.6c-0.8,2.6-0.1,5.6,2,7.6c0.6,0.6,1.2,1.1,1.9,1.4
				c-0.1,3,0.9,6,3.2,8.2c4.3,4.3,11.2,4.3,15.5,0s4.3-11.2,0-15.5C1331.1,629.8,1328.1,628.8,1325.1,628.9z"/>
			<g>
				<polygon class="st41" points="1369.1,631 1342.3,639.6 1342,629.7 1342.1,625.1 1344.2,599.7 1340.7,623.1 1333.2,604.9 
					1340.2,625.8 1340.1,641.4 1340.1,641.4 1316.9,632.6 1340,645.3 1338.9,677.2 1343.6,677.2 1342.5,643.7 				"/>
			</g>
		</g>
		<g>
			<path class="st42" d="M1211.3,617.9c0.6-1.8,0.9-3.7,0.9-5.7c0-7.1-3.9-13.2-9.7-16.4c0.2-0.7,0.3-1.5,0.3-2.3
				c0-5.2-4.2-9.4-9.4-9.4c-5.2,0-9.4,4.2-9.4,9.4c0,0.8,0.1,1.6,0.3,2.3c-5.8,3.2-9.7,9.3-9.7,16.4c0,2,0.3,3.9,0.9,5.7
				c-5.3,4.8-8.6,11.8-8.6,19.5c0,14.6,11.8,26.5,26.5,26.5s26.5-11.8,26.5-26.5C1219.9,629.7,1216.6,622.7,1211.3,617.9z"/>
			<path class="st42" d="M1236.4,688.8c1.3-0.2,2.6-0.7,3.9-1.4c4.4-2.4,6.9-6.9,7-11.6c0.5-0.1,1.1-0.3,1.6-0.6
				c3.2-1.7,4.4-5.8,2.7-9c-1.7-3.2-5.8-4.4-9-2.7c-0.5,0.3-1,0.6-1.4,1c-3.9-2.5-9.1-2.9-13.5-0.5c-1.2,0.7-2.3,1.5-3.3,2.5
				c-4.8-1.7-10.3-1.4-15.1,1.2c-9.1,4.9-12.5,16.3-7.6,25.4c4.9,9.1,16.3,12.5,25.4,7.6C1231.9,698.1,1235.2,693.7,1236.4,688.8z"
				/>
			<path class="st42" d="M1166.9,668.9c-0.6-1.2-1.4-2.3-2.4-3.3c-3.5-3.5-8.6-4.7-13.1-3.4c-0.3-0.5-0.6-0.9-1-1.3
				c-2.6-2.6-6.8-2.6-9.4,0c-2.6,2.6-2.6,6.8,0,9.4c0.4,0.4,0.9,0.7,1.3,1c-1.3,4.5-0.2,9.5,3.4,13.1c1,1,2.1,1.8,3.3,2.4
				c-0.2,5.1,1.6,10.2,5.5,14.1c7.3,7.3,19.2,7.3,26.5,0c7.3-7.3,7.3-19.2,0-26.5C1177.1,670.5,1172,668.7,1166.9,668.9z"/>
			<g>
				<polygon class="st41" points="1242,672.6 1196.3,687.3 1195.7,670.4 1195.9,662.4 1199.4,618.9 1193.4,659 1180.6,627.9 
					1192.7,663.6 1192.5,690.4 1192.5,690.4 1152.7,675.2 1192.3,697 1190.4,751.6 1198.5,751.6 1196.6,694.3 				"/>
			</g>
		</g>
		<g>
			<g>
				<g>
					<g>
						<path class="st35" d="M5.2,844.9c1.6,0,3.2,0.4,4.7,0.9c1.5,0.5,3,1.2,4.4,2.2c1.3,1,2.5,2.2,3.4,3.6c1,1.4,1.4,3.1,1.7,4.8
							l-1.9,0.1c0.1-1.3,0.4-2.5,0.8-3.6c0.4-1.2,1-2.3,1.6-3.3c0.7-1,1.5-1.9,2.4-2.7c0.9-0.8,1.9-1.4,3-1.9
							c-0.8,0.8-1.7,1.6-2.3,2.5c-0.7,0.9-1.3,1.8-1.8,2.8c-0.5,1-0.9,2-1.2,3.1c-0.3,1-0.5,2.2-0.5,3.2l-0.4,6.4l-1.6-6.3l-0.3-1.1
							l-0.1-0.5c-0.1-0.2-0.1-0.3-0.2-0.5l-0.4-1l-0.5-0.9c-0.8-1.2-1.7-2.4-2.8-3.3c-1.1-1-2.4-1.8-3.8-2.5
							C8.1,846,6.7,845.4,5.2,844.9z"/>
					</g>
				</g>
				<g>
					<g>
						<path class="st35" d="M57.5,808.7c-0.4-1.1-0.4-2.4,0-3.6c0.4-1.2,1.2-2.3,2.3-3c1.1-0.7,2.4-1,3.7-0.9c0.6,0,1.2,0.2,1.8,0.3
							c0.6,0.2,1.1,0.4,1.6,0.8c-0.6,0.1-1.2,0.2-1.7,0.2c-0.5,0.1-1.1,0.2-1.6,0.3c-1,0.2-1.9,0.5-2.7,1
							C59.3,804.7,58.4,806.5,57.5,808.7z"/>
					</g>
				</g>
				<g>
					<g>
						<path class="st35" d="M132,779.1c1.1,0.2,2.1,0.9,2.7,1.9c0.3,0.5,0.5,1.1,0.6,1.8c0.1,0.6,0,1.3-0.2,1.9l-1.7-0.8
							c0.6-0.9,1.2-1.5,2-2.1c0.8-0.6,1.7-1,2.7-1.3c1-0.2,2-0.2,2.9,0c0.9,0.2,1.8,0.7,2.5,1.3c-0.9-0.1-1.8-0.2-2.6-0.2
							c-0.4,0-0.8,0.1-1.2,0.2c-0.4,0.1-0.8,0.2-1.1,0.4c-0.7,0.3-1.4,0.7-2,1.2c-0.6,0.5-1.2,1.1-1.7,1.6l-3.6,4.3l1.9-5.1
							c0.1-0.4,0.3-0.8,0.3-1.2c0.1-0.4,0-0.8-0.1-1.2C133.3,780.7,132.7,779.8,132,779.1z"/>
					</g>
				</g>
				<g>
					<g>
						<path class="st35" d="M89.9,818.3c1.1,0.2,2.3,0.6,3.3,1.1c1.1,0.5,2.1,1.2,3,2.1c0.9,0.9,1.6,2,1.9,3.3
							c0.4,1.3,0.2,2.6-0.2,3.9l-1.8-0.8c0.8-1.4,1.7-2.7,2.8-3.8c1.1-1.2,2.3-2.1,3.7-3c1.4-0.8,2.9-1.3,4.5-1.5
							c1.6-0.3,3.1,0,4.6,0.4c-1.5,0.1-3,0.1-4.4,0.6c-1.4,0.5-2.6,1.1-3.8,1.9c-1.2,0.8-2.2,1.8-3.1,2.9c-0.5,0.5-0.9,1.1-1.3,1.7
							c-0.4,0.6-0.8,1.2-1.2,1.7l-3.7,6.3l1.9-7.1c0.3-1,0.5-1.9,0.3-2.9c-0.2-0.9-0.6-1.9-1.2-2.7c-0.6-0.8-1.5-1.6-2.3-2.3
							C91.9,819.5,90.9,818.9,89.9,818.3z"/>
					</g>
				</g>
			</g>
			<g>
				<g>
					<path class="st35" d="M251,761.5c1.6,0,3.2,0.4,4.7,0.9c1.5,0.5,3,1.2,4.4,2.2c1.3,1,2.5,2.2,3.4,3.6c1,1.4,1.4,3.1,1.7,4.8
						l-1.9,0.1c0.1-1.3,0.4-2.5,0.8-3.6c0.4-1.2,1-2.3,1.6-3.3c0.7-1,1.5-1.9,2.4-2.7c0.9-0.8,1.9-1.4,3-1.9
						c-0.8,0.8-1.7,1.6-2.3,2.5c-0.7,0.9-1.3,1.8-1.8,2.8c-0.5,1-0.9,2-1.2,3.1c-0.3,1-0.5,2.2-0.5,3.2l-0.4,6.4l-1.6-6.3l-0.3-1.1
						l-0.1-0.5c-0.1-0.2-0.1-0.3-0.2-0.5l-0.4-1l-0.5-0.9c-0.8-1.2-1.7-2.4-2.8-3.3c-1.1-1-2.4-1.8-3.8-2.5
						C254,762.6,252.5,762,251,761.5z"/>
				</g>
			</g>
			<g>
				<g>
					<path class="st35" d="M199.2,769.2c-0.4-1.1-0.4-2.4,0-3.6c0.4-1.2,1.2-2.3,2.3-3c1.1-0.7,2.4-1,3.7-0.9c0.6,0,1.2,0.2,1.8,0.3
						c0.6,0.2,1.1,0.4,1.6,0.8c-0.6,0.1-1.2,0.2-1.7,0.2c-0.5,0.1-1.1,0.2-1.6,0.3c-1,0.2-1.9,0.5-2.7,1
						C201.1,765.2,200.1,767,199.2,769.2z"/>
				</g>
			</g>
			<g>
				<g>
					<path class="st35" d="M179.5,792.2c1.1,0.2,2.1,0.9,2.7,1.9c0.3,0.5,0.5,1.1,0.6,1.8c0.1,0.6,0,1.3-0.2,1.9l-1.7-0.8
						c0.6-0.9,1.2-1.5,2-2.1c0.8-0.6,1.7-1,2.7-1.3c1-0.2,2-0.2,2.9,0c0.9,0.2,1.8,0.7,2.5,1.3c-0.9-0.1-1.8-0.2-2.6-0.2
						c-0.4,0-0.8,0.1-1.2,0.2c-0.4,0.1-0.8,0.2-1.1,0.4c-0.7,0.3-1.4,0.7-2,1.2c-0.6,0.5-1.2,1.1-1.7,1.6l-3.6,4.3l1.9-5.1
						c0.1-0.4,0.3-0.8,0.3-1.2c0.1-0.4,0-0.8-0.1-1.2C180.8,793.8,180.2,793,179.5,792.2z"/>
				</g>
			</g>
			<g>
				<g>
					<path class="st35" d="M325.1,741.8c0.8-0.1,1.5,0,2.3,0.1c0.7,0.2,1.5,0.5,2.2,0.9c0.7,0.4,1.3,1,1.7,1.7
						c0.5,0.7,0.7,1.5,0.9,2.4l-1.9,0.1c0.1-0.7,0.2-1.2,0.4-1.8c0.2-0.5,0.5-1.1,0.9-1.5c0.7-0.9,1.7-1.6,2.8-1.9
						c-0.7,0.9-1.2,1.7-1.5,2.6c-0.2,0.4-0.3,0.9-0.4,1.4c-0.1,0.4-0.2,1-0.2,1.3l-0.1,7l-1.9-6.9c-0.2-0.6-0.3-1.1-0.6-1.6
						c-0.3-0.5-0.6-1-1.1-1.4C327.5,743.3,326.4,742.5,325.1,741.8z"/>
				</g>
			</g>
			<g>
				<g>
					<path class="st35" d="M433.1,684.8c-0.4-1.1-0.4-2.4,0-3.6c0.4-1.2,1.2-2.3,2.3-3c1.1-0.7,2.4-1,3.7-0.9c0.6,0,1.2,0.2,1.8,0.3
						c0.6,0.2,1.1,0.4,1.6,0.8c-0.6,0.1-1.2,0.2-1.7,0.2c-0.5,0.1-1.1,0.2-1.6,0.3c-1,0.2-1.9,0.5-2.7,1
						C434.9,680.8,433.9,682.6,433.1,684.8z"/>
				</g>
			</g>
			<g>
				<g>
					<path class="st35" d="M627,645.5c0.9-0.8,2-1.3,3.3-1.5c1.2-0.2,2.6,0.1,3.7,0.9c1.1,0.7,1.9,1.8,2.3,3
						c0.2,0.6,0.3,1.2,0.4,1.7c0,0.6,0,1.2,0,1.8c-0.4-0.5-0.6-1-0.9-1.5c-0.3-0.5-0.6-0.9-0.9-1.3c-0.6-0.8-1.3-1.5-2-2
						C631.3,645.5,629.3,645.4,627,645.5z"/>
				</g>
			</g>
			<g>
				<g>
					<path class="st35" d="M525.5,662.6c1.1,0.2,2.1,0.9,2.7,1.9c0.3,0.5,0.5,1.1,0.6,1.8c0.1,0.6,0,1.3-0.2,1.9l-1.7-0.8
						c0.6-0.9,1.2-1.5,2-2.1c0.8-0.6,1.7-1,2.7-1.3c1-0.2,2-0.2,2.9,0c0.9,0.2,1.8,0.7,2.5,1.3c-0.9-0.1-1.8-0.2-2.6-0.2
						c-0.4,0-0.8,0.1-1.2,0.2c-0.4,0.1-0.8,0.2-1.1,0.4c-0.7,0.3-1.4,0.7-2,1.2c-0.6,0.5-1.2,1.1-1.7,1.6l-3.6,4.3l1.9-5.1
						c0.1-0.4,0.3-0.8,0.3-1.2c0.1-0.4,0-0.8-0.1-1.2C526.8,664.3,526.3,663.4,525.5,662.6z"/>
				</g>
			</g>
			<g>
				<g>
					<path class="st35" d="M569.8,659.3c1.1,0.2,2.1,0.9,2.7,1.9c0.3,0.5,0.5,1.1,0.6,1.8c0.1,0.6,0,1.3-0.2,1.9l-1.7-0.8
						c0.6-0.9,1.2-1.5,2-2.1c0.8-0.6,1.7-1,2.7-1.3c1-0.2,2-0.2,2.9,0c0.9,0.2,1.8,0.7,2.5,1.3c-0.9-0.1-1.8-0.2-2.6-0.2
						c-0.4,0-0.8,0.1-1.2,0.2c-0.4,0.1-0.8,0.2-1.1,0.4c-0.7,0.3-1.4,0.7-2,1.2c-0.6,0.5-1.2,1.1-1.7,1.6l-3.6,4.3l1.9-5.1
						c0.1-0.4,0.3-0.8,0.3-1.2c0.1-0.4,0-0.8-0.1-1.2C571.1,660.9,570.6,660.1,569.8,659.3z"/>
				</g>
			</g>
			<g>
				<g>
					<path class="st35" d="M604.3,651.6c1.1-0.2,2.2-0.1,3.3,0.5c0.5,0.3,1,0.8,1.3,1.3c0.3,0.5,0.5,1.2,0.6,1.8l-1.9,0
						c0.1-1.1,0.5-1.9,0.9-2.8c0.5-0.9,1.1-1.7,1.9-2.3c0.8-0.6,1.7-1.1,2.7-1.2c0.9-0.2,1.9-0.1,2.8,0.1c-0.9,0.3-1.7,0.5-2.4,1
						c-0.4,0.2-0.7,0.4-1,0.6c-0.3,0.3-0.6,0.5-0.8,0.8c-0.5,0.6-0.9,1.2-1.3,1.9c-0.3,0.7-0.6,1.5-0.8,2.2l-1.4,5.4l-0.4-5.4
						c0-0.4-0.1-0.8-0.2-1.2c-0.1-0.4-0.3-0.7-0.6-1.1C606.2,652.5,605.3,652,604.3,651.6z"/>
				</g>
			</g>
			<g>
				<g>
					<path class="st35" d="M469.8,676.4c1.1,0.2,2.3,0.6,3.3,1.1c1.1,0.5,2.1,1.2,3,2.1c0.9,0.9,1.6,2,1.9,3.3
						c0.4,1.3,0.2,2.6-0.2,3.9l-1.8-0.8c0.8-1.4,1.7-2.7,2.8-3.8c1.1-1.2,2.3-2.1,3.7-3c1.4-0.8,2.9-1.3,4.5-1.5
						c1.6-0.3,3.1,0,4.6,0.4c-1.5,0.1-3,0.1-4.4,0.6c-1.4,0.5-2.6,1.1-3.8,1.9c-1.2,0.8-2.2,1.8-3.1,2.9c-0.5,0.5-0.9,1.1-1.3,1.7
						c-0.4,0.6-0.8,1.2-1.2,1.7l-3.7,6.3l1.9-7.1c0.3-1,0.5-1.9,0.3-2.9c-0.2-0.9-0.6-1.9-1.2-2.7c-0.6-0.8-1.5-1.6-2.3-2.3
						C471.8,677.6,470.8,676.9,469.8,676.4z"/>
				</g>
			</g>
		</g>
		<g>
			<g>
				<g>
					<g>
						<path class="st35" d="M1395.3,844.9c-1.5,0.5-2.9,1.1-4.3,1.9c-1.4,0.7-2.6,1.6-3.8,2.5c-1.2,0.9-2.1,2.1-2.8,3.3l-0.5,0.9
							l-0.4,1c-0.1,0.2-0.1,0.3-0.2,0.5l-0.1,0.5l-0.3,1.1l-1.6,6.3l-0.4-6.4c-0.1-1-0.2-2.1-0.5-3.2c-0.3-1.1-0.7-2.1-1.2-3.1
							c-0.5-1-1.1-2-1.8-2.8c-0.7-0.9-1.5-1.7-2.3-2.5c1,0.5,2.1,1.1,3,1.9c0.9,0.8,1.7,1.7,2.4,2.7c0.7,1,1.2,2.1,1.6,3.3
							c0.4,1.2,0.7,2.3,0.8,3.6l-1.9-0.1c0.3-1.7,0.8-3.3,1.7-4.8c0.9-1.4,2.1-2.7,3.4-3.6c1.4-0.9,2.8-1.7,4.4-2.2
							C1392.1,845.2,1393.7,844.9,1395.3,844.9z"/>
					</g>
				</g>
				<g>
					<g>
						<path class="st35" d="M1343,808.6c-0.9-2.2-1.8-4-3.4-4.9c-0.8-0.5-1.7-0.8-2.7-1c-0.5-0.1-1-0.2-1.6-0.3
							c-0.5,0-1.1-0.1-1.7-0.2c0.5-0.3,1-0.5,1.6-0.8c0.6-0.1,1.2-0.3,1.8-0.3c1.2-0.1,2.5,0.2,3.7,0.9c1.1,0.7,1.9,1.8,2.3,3
							C1343.3,806.3,1343.4,807.5,1343,808.6z"/>
					</g>
				</g>
				<g>
					<g>
						<path class="st35" d="M1268.5,779c-0.7,0.8-1.3,1.6-1.6,2.5c-0.1,0.4-0.2,0.8-0.1,1.2c0,0.4,0.2,0.8,0.3,1.2l1.9,5.1l-3.6-4.3
							c-0.5-0.5-1.1-1.1-1.7-1.6c-0.6-0.5-1.3-0.9-2-1.2c-0.4-0.2-0.7-0.2-1.1-0.4c-0.4,0-0.8-0.2-1.2-0.2c-0.8-0.1-1.7,0.1-2.6,0.2
							c0.7-0.6,1.5-1.1,2.5-1.3c0.9-0.3,2-0.3,2.9,0c1,0.2,1.9,0.7,2.7,1.3c0.8,0.6,1.5,1.3,2,2.1l-1.7,0.8
							c-0.1-0.6-0.3-1.2-0.2-1.9c0.1-0.6,0.3-1.2,0.6-1.8C1266.4,779.9,1267.4,779.3,1268.5,779z"/>
					</g>
				</g>
				<g>
					<g>
						<path class="st35" d="M1310.6,818.3c-1,0.5-2,1.2-2.9,1.8c-0.9,0.7-1.7,1.4-2.3,2.3c-0.6,0.8-1.1,1.8-1.2,2.7
							c-0.2,1,0,1.9,0.3,2.9l1.9,7.1l-3.7-6.3c-0.3-0.6-0.7-1.2-1.2-1.7c-0.4-0.6-0.9-1.1-1.3-1.7c-1-1-2-2-3.1-2.9
							c-1.1-0.9-2.4-1.5-3.8-1.9c-1.4-0.5-2.8-0.5-4.4-0.6c1.4-0.4,3-0.7,4.6-0.4c1.6,0.2,3.1,0.7,4.5,1.5c1.4,0.8,2.6,1.8,3.7,3
							c1.1,1.2,2,2.4,2.8,3.8l-1.8,0.8c-0.3-1.2-0.5-2.6-0.2-3.9c0.3-1.3,1.1-2.4,1.9-3.3c0.9-0.9,1.9-1.5,3-2.1
							C1308.3,818.9,1309.4,818.5,1310.6,818.3z"/>
					</g>
				</g>
			</g>
			<g>
				<g>
					<path class="st35" d="M1149.5,761.5c-1.5,0.5-2.9,1.1-4.3,1.9c-1.4,0.7-2.6,1.6-3.8,2.5c-1.2,0.9-2.1,2.1-2.8,3.3l-0.5,0.9
						l-0.4,1c-0.1,0.2-0.1,0.3-0.2,0.5l-0.1,0.5l-0.3,1.1l-1.6,6.3l-0.4-6.4c-0.1-1-0.2-2.1-0.5-3.2c-0.3-1.1-0.7-2.1-1.2-3.1
						c-0.5-1-1.1-2-1.8-2.8c-0.7-0.9-1.5-1.7-2.3-2.5c1,0.5,2.1,1.1,3,1.9c0.9,0.8,1.7,1.7,2.4,2.7c0.7,1,1.2,2.1,1.6,3.3
						c0.4,1.2,0.7,2.3,0.8,3.6l-1.9-0.1c0.3-1.7,0.8-3.3,1.7-4.8c0.9-1.4,2.1-2.7,3.4-3.6c1.4-0.9,2.8-1.7,4.4-2.2
						C1146.3,761.9,1147.9,761.5,1149.5,761.5z"/>
				</g>
			</g>
			<g>
				<g>
					<path class="st35" d="M1201.2,769.2c-0.9-2.2-1.8-4-3.4-4.9c-0.8-0.5-1.7-0.8-2.7-1c-0.5-0.1-1-0.2-1.6-0.3
						c-0.5,0-1.1-0.1-1.7-0.2c0.5-0.3,1-0.5,1.6-0.8c0.6-0.1,1.2-0.3,1.8-0.3c1.2-0.1,2.5,0.2,3.7,0.9c1.1,0.7,1.9,1.8,2.3,3
						C1201.6,766.8,1201.6,768,1201.2,769.2z"/>
				</g>
			</g>
			<g>
				<g>
					<path class="st35" d="M1221,792.2c-0.7,0.8-1.3,1.6-1.6,2.5c-0.1,0.4-0.2,0.8-0.1,1.2c0,0.4,0.2,0.8,0.3,1.2l2,5.1l-3.6-4.3
						c-0.5-0.5-1.1-1.1-1.7-1.6c-0.6-0.5-1.3-0.9-2-1.2c-0.4-0.2-0.7-0.2-1.1-0.4c-0.4,0-0.8-0.2-1.2-0.2c-0.8-0.1-1.7,0.1-2.6,0.2
						c0.7-0.6,1.5-1.1,2.5-1.3c0.9-0.3,2-0.3,2.9,0c1,0.2,1.9,0.7,2.7,1.3c0.8,0.6,1.5,1.3,2,2.1l-1.7,0.8c-0.1-0.6-0.3-1.2-0.2-1.9
						c0.1-0.6,0.3-1.2,0.6-1.8C1218.9,793.1,1219.9,792.5,1221,792.2z"/>
				</g>
			</g>
			<g>
				<g>
					<path class="st35" d="M1075.4,741.8c-1.3,0.7-2.5,1.5-3.4,2.4c-0.5,0.4-0.8,0.9-1.1,1.4c-0.3,0.5-0.5,1.1-0.6,1.6l-1.9,6.9
						l-0.1-7c0-0.4-0.1-0.9-0.2-1.3c-0.1-0.5-0.2-0.9-0.4-1.4c-0.3-0.9-0.9-1.7-1.5-2.6c1.1,0.3,2.1,1,2.8,1.9
						c0.4,0.5,0.6,1,0.9,1.5c0.2,0.6,0.4,1.1,0.4,1.8l-1.9-0.1c0.1-0.8,0.4-1.7,0.9-2.4c0.5-0.7,1.1-1.3,1.7-1.7
						c0.7-0.4,1.4-0.7,2.2-0.9C1073.9,741.7,1074.7,741.7,1075.4,741.8z"/>
				</g>
			</g>
			<g>
				<g>
					<path class="st35" d="M967.4,684.8c-0.9-2.2-1.8-4-3.4-4.9c-0.8-0.5-1.7-0.8-2.7-1c-0.5-0.1-1-0.2-1.6-0.3
						c-0.5,0-1.1-0.1-1.7-0.2c0.5-0.3,1-0.5,1.6-0.8c0.6-0.1,1.2-0.3,1.8-0.3c1.2-0.1,2.5,0.2,3.7,0.9c1.1,0.7,1.9,1.8,2.3,3
						C967.8,682.4,967.8,683.6,967.4,684.8z"/>
				</g>
			</g>
			<g>
				<g>
					<path class="st35" d="M773.5,645.5c-2.3-0.1-4.4,0-5.9,1.1c-0.7,0.5-1.4,1.2-2,2c-0.3,0.4-0.6,0.9-0.9,1.3
						c-0.3,0.5-0.5,1-0.9,1.5c-0.1-0.6-0.1-1.2,0-1.8c0.1-0.6,0.2-1.2,0.4-1.7c0.4-1.1,1.2-2.2,2.3-3c1.1-0.8,2.5-1,3.7-0.9
						C771.5,644.2,772.6,644.7,773.5,645.5z"/>
				</g>
			</g>
			<g>
				<g>
					<path class="st35" d="M875,662.6c-0.7,0.8-1.3,1.6-1.6,2.5c-0.1,0.4-0.2,0.8-0.1,1.2c0,0.4,0.2,0.8,0.3,1.2l2,5.1l-3.6-4.3
						c-0.5-0.5-1.1-1.1-1.7-1.6c-0.6-0.5-1.3-0.9-2-1.2c-0.4-0.2-0.7-0.2-1.1-0.4c-0.4,0-0.8-0.2-1.2-0.2c-0.8-0.1-1.7,0.1-2.6,0.2
						c0.7-0.6,1.5-1.1,2.5-1.3c0.9-0.3,2-0.3,2.9,0c1,0.2,1.9,0.7,2.7,1.3c0.8,0.6,1.5,1.3,2,2.1l-1.7,0.8c-0.1-0.6-0.3-1.2-0.2-1.9
						c0.1-0.6,0.3-1.2,0.6-1.8C872.9,663.5,873.9,662.9,875,662.6z"/>
				</g>
			</g>
			<g>
				<g>
					<path class="st35" d="M830.7,659.3c-0.7,0.8-1.3,1.6-1.6,2.5c-0.1,0.4-0.2,0.8-0.1,1.2c0,0.4,0.2,0.8,0.3,1.2l2,5.1l-3.6-4.3
						c-0.5-0.5-1.1-1.1-1.7-1.6c-0.6-0.5-1.3-0.9-2-1.2c-0.4-0.2-0.7-0.2-1.1-0.4c-0.4,0-0.8-0.2-1.2-0.2c-0.8-0.1-1.7,0.1-2.6,0.2
						c0.7-0.6,1.5-1.1,2.5-1.3c0.9-0.3,2-0.3,2.9,0c1,0.2,1.9,0.7,2.7,1.3c0.8,0.6,1.5,1.3,2,2.1l-1.7,0.8c-0.1-0.6-0.3-1.2-0.2-1.9
						c0.1-0.6,0.3-1.2,0.6-1.8C828.6,660.2,829.6,659.6,830.7,659.3z"/>
				</g>
			</g>
			<g>
				<g>
					<path class="st35" d="M796.1,651.6c-1,0.4-1.9,0.9-2.5,1.5c-0.3,0.3-0.5,0.7-0.6,1.1c-0.2,0.4-0.2,0.8-0.2,1.2l-0.4,5.4
						l-1.4-5.4c-0.2-0.7-0.5-1.5-0.8-2.2c-0.4-0.7-0.8-1.3-1.3-1.9c-0.3-0.3-0.6-0.5-0.8-0.8c-0.3-0.2-0.6-0.5-1-0.6
						c-0.7-0.4-1.5-0.7-2.4-1c0.9-0.2,1.8-0.3,2.8-0.1c1,0.2,1.9,0.6,2.7,1.2c0.8,0.6,1.4,1.4,1.9,2.3c0.5,0.9,0.8,1.8,0.9,2.8
						l-1.9,0c0.1-0.6,0.3-1.2,0.6-1.8c0.3-0.5,0.8-1,1.3-1.3C793.9,651.5,795.1,651.3,796.1,651.6z"/>
				</g>
			</g>
			<g>
				<g>
					<path class="st35" d="M930.7,676.4c-1,0.5-2,1.2-2.9,1.8c-0.9,0.7-1.7,1.4-2.3,2.3c-0.6,0.8-1.1,1.8-1.2,2.7
						c-0.2,1,0,1.9,0.3,2.9l1.9,7.1l-3.7-6.3c-0.3-0.6-0.7-1.2-1.2-1.7c-0.4-0.6-0.9-1.1-1.3-1.7c-1-1-2-2-3.1-2.9
						c-1.1-0.9-2.4-1.5-3.8-1.9c-1.4-0.5-2.8-0.5-4.4-0.6c1.4-0.4,3-0.7,4.6-0.4c1.6,0.2,3.1,0.7,4.5,1.5c1.4,0.8,2.6,1.8,3.7,3
						c1.1,1.2,2,2.4,2.8,3.8l-1.8,0.8c-0.3-1.2-0.5-2.6-0.2-3.9c0.3-1.3,1.1-2.4,1.9-3.3c0.9-0.9,1.9-1.5,3-2.1
						C928.4,677,929.5,676.6,930.7,676.4z"/>
				</g>
			</g>
		</g>
		<g>
			<path class="st46" d="M1227,737.1h48.5c0,0-7.8-19.5-29.8-18.2C1223.7,720.2,1227,737.1,1227,737.1z"/>
			<path class="st47" d="M1253.3,739.5h44.4c0,0-7.2-15.5-27.3-14.5C1250.4,726.1,1253.3,739.5,1253.3,739.5z"/>
			<path class="st48" d="M1206.9,739.5c0,0,25.2-27.1,64.1,0H1206.9z"/>
		</g>
		<g>
			<path class="st46" d="M1020.5,674.5h28.3c0,0-4.6-11.4-17.4-10.6C1018.6,664.7,1020.5,674.5,1020.5,674.5z"/>
			<path class="st47" d="M1035.9,676h25.9c0,0-4.2-9.1-15.9-8.5C1034.1,668.1,1035.9,676,1035.9,676z"/>
			<path class="st48" d="M1008.8,676c0,0,14.7-15.8,37.4,0H1008.8z"/>
		</g>
		<g>
			<path class="st47" d="M1362.9,677.2h23.2c0,0-3.7-8.1-14.2-7.6C1361.3,670.2,1362.9,677.2,1362.9,677.2z"/>
			<path class="st46" d="M1338.7,677.2h25.2c0,0-4.1-9.7-15.5-9.1S1338.7,677.2,1338.7,677.2z"/>
			<path class="st48" d="M1338.6,677.2c0,0,13.2-14.2,33.5,0H1338.6z"/>
		</g>
	</g>
</g>
<g>
	<g>
		<text transform="matrix(1 0 0 1 430.4605 189.2256)" class="st28 st49 st50">ROAD TRIP</text>
		<text transform="matrix(1 0 0 1 427.2886 257.3729)" class="st28 st51 st52">BACKGROUND</text>
	</g>
	<rect x="433.7" y="267.7" class="st28" width="533.3" height="8.7"/>
</g>
</svg>
